<?xml version="1.0" standalone="no"?>
<!DOCTYPE svg PUBLIC "-//W3C//DTD SVG 20010904//EN"
 "http://www.w3.org/TR/2001/REC-SVG-20010904/DTD/svg10.dtd">
<svg version="1.0" xmlns="http://www.w3.org/2000/svg"
 width="1280.000000pt" height="1280.000000pt" viewBox="0 0 1280.000000 1280.000000"
 preserveAspectRatio="xMidYMid meet">
<metadata>
Created by potrace 1.11, written by Peter Selinger 2001-2013
</metadata>
<g transform="translate(0.000000,1280.000000) scale(0.100000,-0.100000)"
fill="#000000" stroke="none">
<path d="M8930 12537 c-3 -3 -21 -7 -40 -10 -119 -16 -223 -86 -872 -587 -116
-90 -522 -397 -568 -430 -27 -19 -88 -64 -137 -99 -237 -173 -547 -383 -748
-507 -207 -128 -266 -164 -270 -164 -2 0 -36 -19 -77 -43 -119 -70 -422 -221
-573 -285 -225 -96 -444 -165 -650 -208 -106 -21 -98 -20 -220 -40 -26 -4
-167 -22 -230 -29 -27 -3 -63 -8 -80 -10 -16 -2 -70 -7 -120 -10 -49 -4 -108
-8 -130 -10 -268 -25 -1196 -24 -1565 0 -30 2 -104 6 -165 9 -60 3 -139 8
-175 10 -36 3 -102 8 -147 11 -46 3 -120 7 -165 10 -46 3 -96 8 -113 10 -16 2
-77 7 -135 10 -58 4 -116 8 -129 10 -14 3 -63 7 -110 10 -47 3 -104 8 -126 10
-22 2 -71 7 -110 10 -38 3 -90 8 -115 11 -53 5 -130 12 -220 19 -36 3 -83 7
-106 9 -171 17 -243 18 -298 2 -153 -45 -252 -121 -279 -216 -9 -30 -18 -67
-21 -83 -2 -15 -7 -35 -10 -45 -3 -9 -7 -28 -10 -42 -2 -14 -11 -63 -19 -110
-9 -47 -18 -103 -22 -125 -3 -22 -10 -67 -15 -100 -5 -33 -12 -80 -15 -105 -3
-25 -8 -56 -10 -70 -3 -14 -7 -43 -10 -65 -2 -22 -11 -92 -20 -155 -8 -63 -18
-133 -20 -155 -3 -22 -8 -58 -11 -80 -3 -22 -8 -53 -10 -70 -2 -16 -7 -41 -9
-55 -3 -14 -7 -45 -10 -70 -3 -25 -13 -83 -21 -130 -8 -47 -17 -100 -20 -119
l-4 -33 36 43 c49 60 196 212 269 278 110 100 130 116 200 172 254 200 555
372 860 492 121 47 285 102 335 112 8 2 42 10 75 19 59 15 244 53 295 60 14 2
50 7 80 11 30 4 66 8 79 10 53 9 262 19 380 18 136 0 261 -8 378 -24 43 -5 98
-12 123 -15 25 -3 95 -16 157 -29 61 -14 122 -26 135 -29 109 -22 343 -102
512 -174 654 -278 1203 -759 1575 -1377 61 -102 191 -356 191 -374 0 -6 3 -12
8 -14 4 -3 4 29 1 71 -8 120 -2 485 10 612 13 122 17 153 31 240 6 30 12 75
15 99 3 24 7 47 9 50 3 4 7 27 11 51 4 25 22 104 40 175 143 560 400 1077 760
1530 102 128 141 171 310 341 546 548 1219 916 1990 1087 39 9 84 18 100 21
17 3 71 12 120 20 87 14 139 21 255 32 77 7 121 13 150 19 14 3 41 8 60 11 19
3 38 9 42 12 3 4 -4 40 -17 80 -71 224 -209 384 -395 461 -38 16 -84 24 -150
28 -52 3 -97 3 -100 0z"/>
<path d="M9509 10976 c-2 -2 -38 -6 -79 -10 -506 -39 -1071 -250 -1500 -560
-401 -289 -735 -678 -950 -1106 -64 -126 -134 -287 -145 -330 -2 -8 -17 -53
-34 -100 -26 -76 -75 -252 -87 -313 -2 -12 -6 -33 -9 -47 -13 -59 -45 -289
-50 -364 -8 -102 -9 -428 -1 -481 3 -22 8 -67 11 -100 7 -70 21 -160 41 -265
115 -586 413 -1140 840 -1565 134 -133 135 -134 355 -310 85 -67 340 -220 484
-289 78 -38 287 -128 293 -126 1 1 51 -15 111 -34 93 -30 152 -46 221 -61 8
-1 33 -8 55 -13 22 -6 54 -13 70 -16 17 -3 39 -7 50 -9 11 -3 47 -8 80 -12 32
-4 68 -9 80 -11 115 -24 620 -24 755 1 14 2 45 6 70 9 25 3 56 8 70 11 14 3
39 8 55 11 326 58 697 198 990 372 464 276 863 685 1122 1152 49 88 124 246
179 375 73 174 156 504 188 755 25 186 25 574 2 720 -3 14 -7 48 -11 75 -32
275 -138 625 -276 910 -318 660 -900 1215 -1564 1490 -49 21 -103 43 -120 50
-42 18 -205 70 -295 94 -105 29 -272 61 -390 76 -25 3 -61 8 -80 11 -42 7
-525 16 -531 10z m417 -250 c50 -4 102 -9 115 -11 13 -2 73 -11 133 -20 193
-30 432 -98 631 -181 76 -32 86 -39 81 -58 -3 -11 -6 -26 -6 -32 0 -7 -25 -30
-55 -53 -31 -23 -64 -59 -75 -81 -19 -38 -19 -42 -4 -71 14 -28 19 -31 50 -26
31 5 37 2 70 -39 l36 -44 48 40 47 39 26 -56 c14 -31 24 -60 21 -64 -2 -4 -28
-11 -57 -14 -28 -4 -77 -19 -107 -33 l-55 -27 -25 -82 -25 -81 -68 -33 -67
-33 6 -56 c8 -68 9 -70 43 -70 26 0 29 -4 33 -36 2 -19 2 -37 -1 -39 -3 -1
-37 -6 -75 -10 -42 -4 -85 -15 -109 -28 -22 -12 -48 -26 -58 -32 -11 -5 -20
-17 -20 -25 -6 -62 -2 -82 28 -142 36 -71 45 -78 100 -78 42 0 214 56 225 73
4 7 8 25 8 42 0 29 64 208 83 233 5 6 27 12 49 12 36 0 41 4 70 51 29 46 33
49 45 33 7 -10 13 -21 13 -24 0 -4 55 -24 123 -45 67 -21 125 -39 129 -41 3
-2 4 -13 1 -23 -3 -14 -20 -23 -55 -31 l-50 -13 27 -21 c16 -13 37 -21 49 -20
12 1 26 3 32 3 5 1 24 12 41 27 30 25 31 25 17 69 -8 27 -9 47 -3 50 24 16 1
29 -71 41 -77 13 -114 32 -143 72 -17 23 -29 44 -26 46 2 2 27 11 54 19 l50
14 90 -42 91 -43 12 -50 c9 -33 20 -53 35 -60 12 -6 45 -24 73 -41 l51 -30 -3
83 c-3 80 -2 84 26 111 l29 28 26 -60 c23 -51 34 -65 74 -87 l47 -25 68 22 68
22 24 -30 c14 -17 45 -59 69 -95 34 -50 41 -68 32 -77 -12 -12 -188 -65 -217
-65 -8 0 -46 12 -85 27 l-70 26 -67 -26 c-38 -15 -68 -30 -68 -34 0 -5 5 -23
11 -41 14 -40 -1 -54 -46 -42 -16 4 -90 7 -164 7 l-135 0 -19 65 c-10 36 -22
69 -26 73 -4 4 -72 -18 -152 -48 -116 -46 -153 -65 -189 -99 -42 -40 -108 -67
-195 -80 -10 -1 -46 -31 -81 -66 l-62 -63 19 -66 c11 -36 19 -73 19 -82 0 -10
-49 -81 -110 -159 -60 -77 -110 -146 -110 -152 0 -6 10 -27 21 -48 20 -35 24
-37 52 -29 17 5 32 7 34 6 1 -2 4 -23 6 -46 3 -32 -1 -45 -15 -55 -11 -8 -16
-21 -13 -35 5 -28 43 -156 57 -191 6 -17 61 -57 179 -131 l171 -106 59 15 c32
9 59 22 59 28 0 6 45 25 99 40 92 27 101 32 122 66 19 31 34 41 77 54 52 14
56 14 99 -6 43 -20 47 -20 125 -5 45 8 85 12 90 7 4 -4 10 -24 12 -45 4 -31
14 -86 22 -119 1 -5 2 -18 3 -29 0 -12 30 -49 69 -86 181 -175 213 -207 221
-220 4 -9 -1 -57 -13 -116 -21 -97 -21 -104 -5 -147 13 -37 26 -50 69 -75 l53
-30 31 -106 30 -106 73 -53 73 -54 27 -89 c29 -95 30 -97 96 -72 22 9 20 4
-53 -150 -300 -632 -856 -1144 -1519 -1400 -89 -34 -305 -101 -361 -111 -14
-3 -41 -9 -60 -14 -41 -10 -81 -18 -130 -25 -19 -3 -46 -7 -60 -10 -14 -3 -50
-7 -80 -10 -30 -3 -80 -7 -110 -10 -119 -12 -410 -6 -535 11 -469 62 -873 212
-1255 467 -159 106 -386 304 -515 448 -269 299 -477 664 -590 1034 -15 50 -30
97 -33 105 -7 22 -10 32 -16 58 -3 13 -7 31 -10 40 -3 9 -8 33 -11 52 -3 19
-10 54 -15 76 -5 23 -11 56 -14 75 -8 65 -18 134 -23 159 -6 35 -11 433 -6
503 3 31 8 57 13 57 4 0 15 -27 24 -59 16 -58 17 -59 59 -66 97 -16 84 -3 122
-132 25 -85 34 -101 73 -137 25 -23 60 -56 79 -74 30 -28 40 -33 79 -31 53 3
58 9 49 52 -4 24 -24 46 -75 87 -59 46 -75 67 -105 129 -36 75 -36 88 1 95 16
3 26 -10 55 -70 32 -70 41 -80 142 -160 59 -47 107 -89 107 -92 0 -4 -4 -21
-9 -38 -11 -39 -11 -39 67 -104 l64 -52 111 5 c62 4 120 6 130 7 14 0 17 5 12
20 -5 15 -2 20 12 21 10 0 30 3 45 5 24 4 28 0 36 -28 7 -27 13 -33 33 -31 13
1 58 3 99 5 82 2 69 8 229 -93 l63 -40 105 22 c120 26 108 32 149 -73 l26 -66
-54 -69 -55 -69 18 -69 c10 -39 20 -95 22 -125 l4 -55 144 -101 c87 -61 147
-110 154 -126 19 -46 34 -57 70 -51 36 6 218 -48 242 -71 9 -9 72 -201 87
-266 2 -9 16 -55 31 -103 19 -61 32 -87 44 -88 41 -3 46 -5 47 -14 1 -23 18
-181 20 -187 1 -5 2 -12 3 -16 0 -5 30 -30 66 -57 69 -52 71 -58 101 -219 6
-33 24 -56 108 -138 56 -54 104 -98 108 -98 4 0 46 -18 93 -40 47 -22 91 -40
98 -40 6 0 45 10 85 21 69 21 72 23 72 53 0 29 -5 33 -60 54 -79 31 -90 43
-90 100 0 26 -3 63 -6 83 -6 36 -7 37 -38 28 -45 -13 -60 -11 -84 9 l-21 18
24 40 c15 26 21 48 18 67 -5 24 -10 27 -43 27 -38 0 -55 16 -41 38 4 6 27 20
51 31 25 11 75 49 113 83 64 60 68 67 86 138 10 41 40 127 65 190 l45 115 -44
78 c-44 77 -44 79 -33 132 9 46 14 54 37 60 116 27 130 34 171 91 l41 55 -16
82 c-9 45 -18 93 -21 107 -2 14 -9 53 -16 87 -11 61 -11 65 25 155 29 75 35
102 31 138 -3 25 -7 47 -9 49 -3 2 -28 4 -58 5 -49 1 -59 6 -106 48 -49 42
-56 45 -85 37 -197 -59 -206 -60 -305 -54 -108 7 -120 15 -142 92 -8 28 -28
57 -63 91 l-51 49 -80 -23 c-44 -13 -83 -24 -87 -24 -3 0 -41 29 -83 65 -55
47 -84 65 -105 65 -15 0 -36 3 -46 7 -14 5 -16 2 -12 -20 5 -24 0 -28 -64 -51
-38 -14 -75 -26 -82 -26 -7 0 -30 13 -50 29 -31 25 -44 29 -79 25 -23 -3 -62
-6 -87 -8 -41 -3 -47 -7 -66 -42 -11 -21 -31 -65 -43 -97 -13 -31 -26 -59 -30
-61 -4 -3 -45 -9 -91 -15 -47 -6 -95 -14 -106 -16 -23 -5 -31 8 -89 163 l-27
73 -62 -6 c-33 -4 -69 -9 -78 -10 -21 -4 -23 17 -7 84 8 37 7 51 -8 78 -10 18
-20 33 -23 33 -3 -1 -41 -45 -85 -99 l-79 -98 -66 -12 -65 -13 -41 45 c-41 45
-41 45 -38 119 1 40 5 80 7 88 2 8 8 34 12 58 6 36 19 53 80 110 70 66 77 69
181 100 60 18 130 39 156 47 l48 14 11 -42 c16 -55 17 -56 69 -62 25 -3 53 -8
63 -11 15 -5 17 -1 11 22 -4 15 -17 53 -29 83 l-22 56 31 59 c17 32 60 92 95
132 60 71 63 77 58 117 -7 64 88 241 180 337 37 39 68 79 69 89 1 10 18 47 38
83 37 67 48 73 97 54 10 -5 20 4 32 29 l17 36 -37 -2 c-62 -3 -70 0 -75 26
-10 51 69 81 116 44 l28 -22 51 24 c29 13 54 24 56 26 2 1 4 13 5 25 1 22 7
24 46 19 15 -2 12 -42 -5 -61 -13 -14 -14 -22 -4 -43 11 -24 16 -26 83 -26 39
0 84 3 99 6 25 4 28 8 22 31 -9 40 -25 50 -80 54 -80 6 -98 29 -47 61 55 34
53 30 42 84 -10 43 -15 52 -38 58 -104 25 -96 18 -122 100 -13 41 -27 75 -30
75 -4 0 -34 -25 -66 -55 -33 -30 -65 -55 -71 -56 -32 -5 -37 -2 -40 26 -2 17
-7 43 -11 59 -8 29 -9 30 -67 27 -143 -7 -144 -7 -164 -32 -44 -53 -45 -62
-22 -141 12 -40 24 -80 27 -89 3 -10 -17 -30 -61 -60 -36 -24 -65 -51 -66 -59
0 -8 -2 -24 -5 -35 -2 -11 -6 -33 -8 -50 -2 -21 -13 -36 -33 -48 l-30 -17 -23
76 -22 75 -46 -5 c-26 -3 -57 -7 -68 -10 -46 -9 -102 14 -128 55 -14 21 -27
42 -28 47 -3 9 34 52 142 168 41 43 135 114 152 114 3 0 13 -16 22 -35 17 -34
17 -35 49 -22 23 10 31 19 29 34 -2 15 6 24 28 33 37 15 37 23 5 44 -35 23
-31 33 14 47 31 9 44 21 62 55 27 54 27 54 119 96 l75 34 48 -21 49 -21 -81
-81 c-45 -44 -81 -83 -81 -86 0 -2 21 -3 48 -1 26 1 87 5 136 8 49 4 91 8 93
9 1 2 3 24 4 49 l2 46 57 16 c55 16 57 17 67 61 l10 44 -46 3 c-43 3 -46 5
-56 40 -14 51 -21 55 -90 63 -33 3 -69 8 -80 10 -11 3 -48 7 -82 10 -56 4 -70
1 -146 -34 -48 -22 -101 -55 -122 -77 l-38 -38 18 -50 c10 -28 20 -56 22 -62
3 -8 -15 -15 -47 -19 -43 -6 -53 -4 -65 11 -25 34 -23 53 11 105 18 29 32 54
30 56 -1 2 -43 -6 -92 -18 -91 -21 -131 -42 -134 -69 -6 -42 0 -50 35 -50 33
0 35 -2 35 -34 0 -32 -3 -34 -55 -51 -48 -15 -55 -20 -55 -43 0 -25 -7 -29
-73 -51 -39 -13 -77 -26 -82 -28 -13 -4 -49 78 -38 87 4 3 33 14 63 23 50 15
58 22 88 73 17 30 32 59 32 64 0 4 -12 10 -27 13 -29 5 -53 -7 -53 -27 0 -28
-47 -63 -98 -74 -53 -12 -53 -12 -103 26 -28 20 -54 36 -57 36 -4 -1 -39 -11
-79 -23 -66 -19 -75 -26 -105 -69 -18 -26 -41 -56 -51 -67 -10 -11 -23 -28
-28 -37 -9 -16 -6 -16 38 -2 82 25 98 27 112 11 9 -12 10 -21 1 -37 -6 -12
-10 -23 -8 -25 2 -2 38 6 81 18 76 20 78 20 92 1 24 -32 28 -29 -100 -61 -62
-15 -63 -15 -70 6 -6 19 -12 21 -75 17 -38 -3 -81 -1 -97 3 -18 5 -49 1 -87
-10 -33 -10 -61 -17 -63 -15 -7 7 151 189 249 286 119 119 267 239 414 340 58
38 106 70 108 70 2 0 41 22 87 48 146 83 467 219 564 238 11 2 43 10 70 19 64
20 207 52 265 59 25 3 56 8 70 11 42 8 121 16 215 21 50 4 91 7 92 8 4 3 217
-3 299 -8z m1301 -433 c51 -31 72 -50 69 -61 -18 -84 -11 -78 -110 -106 -86
-25 -92 -25 -104 -9 -11 16 -7 23 35 59 l47 41 -11 49 c-6 27 -15 58 -19 68
-8 22 -14 24 93 -41z m599 -550 c-37 -20 -47 -14 -62 38 -26 84 -19 89 38 30
l52 -53 -28 -15z m-4153 -205 c13 -48 -1 -65 -69 -84 -70 -19 -68 -19 -78 13
-6 18 -2 24 18 29 14 3 26 12 26 20 0 7 16 16 35 20 19 3 38 10 41 15 9 16 21
10 27 -13z m43 -160 c-1 -29 -5 -33 -59 -51 -55 -18 -101 -17 -81 3 12 12 126
80 134 80 4 0 7 -14 6 -32z m307 -207 c4 0 7 -20 7 -44 0 -37 -4 -45 -31 -61
-30 -18 -30 -18 -59 11 -37 35 -37 45 -1 76 25 21 44 25 84 18z m283 -136 c4
-8 10 -12 15 -9 8 4 34 -46 27 -51 -7 -4 -156 -44 -185 -49 -30 -5 -33 -3 -33
19 0 28 47 68 106 89 51 19 63 19 70 1z m97 -8 c25 -13 25 -13 5 -26 -17 -11
-22 -10 -29 1 -9 13 -12 38 -5 38 2 0 15 -6 29 -13z m147 -38 c0 -14 -28 -29
-43 -23 -24 9 -9 34 19 32 13 -1 24 -5 24 -9z m-111 -41 c10 -26 -11 -61 -46
-77 -26 -12 -29 -9 -38 39 -6 32 -4 37 22 47 43 17 53 15 62 -9z m-187 -118
c-30 -88 -46 -104 -76 -75 -21 21 -20 49 2 102 14 35 24 45 57 56 22 8 41 11
43 8 1 -4 -11 -45 -26 -91z m337 86 c26 -16 11 -45 -29 -56 -47 -13 -55 -9
-75 30 -13 26 -13 29 2 32 27 5 89 1 102 -6z m-138 -83 c4 -52 -20 -81 -70
-85 -29 -3 -34 0 -36 21 -1 16 4 25 17 29 10 2 18 8 18 12 0 16 31 40 51 40
11 0 19 -7 20 -17z m-1431 -198 c0 -17 -52 -146 -57 -142 -2 2 4 26 12 53 8
27 14 50 14 52 0 1 2 16 6 32 6 30 25 33 25 5z"/>
<path d="M10495 10104 c-41 -22 -55 -42 -55 -80 0 -32 2 -34 69 -54 58 -17 81
-33 81 -56 0 -2 -14 -10 -30 -19 -31 -16 -32 -21 -15 -87 l7 -26 49 14 c103
31 129 47 149 92 l19 42 -30 0 c-53 0 -135 67 -176 143 -15 26 -29 47 -32 47
-3 -1 -19 -8 -36 -16z"/>
<path d="M10397 9942 c-29 -18 -50 -72 -50 -129 1 -46 8 -53 46 -41 59 19 127
128 109 176 -6 17 -71 13 -105 -6z"/>
<path d="M9104 9202 c-7 -4 -13 -16 -15 -26 -2 -11 -18 -24 -38 -31 -41 -14
-51 -33 -25 -52 35 -25 81 -6 89 38 3 13 12 30 22 37 25 18 25 42 0 42 -12 0
-27 -4 -33 -8z"/>
<path d="M8915 9080 c-3 -11 -4 -29 0 -40 6 -18 8 -19 35 -5 28 14 32 28 17
53 -13 19 -45 14 -52 -8z"/>
<path d="M2287 8184 c-1 -1 -36 -4 -77 -8 -542 -44 -1047 -349 -1352 -815 -64
-99 -149 -274 -191 -396 -36 -104 -51 -164 -72 -295 -4 -25 -9 -54 -12 -65
-12 -53 -10 -348 3 -450 15 -113 58 -291 95 -392 24 -66 108 -240 141 -294 13
-20 34 -55 47 -78 14 -22 28 -41 33 -41 4 0 8 -6 8 -14 0 -8 3 -16 8 -18 4 -1
26 -28 49 -59 109 -143 333 -334 511 -435 150 -86 355 -165 504 -195 29 -6 60
-12 68 -14 8 -2 40 -6 70 -10 30 -4 66 -9 80 -11 35 -5 309 -5 340 0 14 3 48
7 75 11 257 30 571 154 795 313 162 115 347 308 467 487 125 187 239 479 267
685 4 25 9 68 13 95 9 68 9 325 0 405 -10 85 -42 240 -63 310 -10 30 -19 60
-20 65 -6 26 -76 190 -104 242 -156 298 -354 513 -655 710 -50 32 -231 122
-305 151 -78 30 -258 79 -321 87 -30 4 -56 8 -59 10 -14 9 -334 26 -343 19z
m768 -269 c290 -34 561 -229 699 -502 29 -58 74 -186 82 -235 15 -89 11 -280
-7 -357 -59 -252 -187 -440 -394 -575 -113 -74 -236 -123 -365 -144 -47 -8
-235 -6 -285 2 -297 51 -561 256 -685 530 -89 196 -104 441 -39 646 31 96 55
146 115 235 62 93 87 121 169 191 137 117 317 195 488 211 34 3 63 6 64 7 4 3
105 -2 158 -9z"/>
<path d="M5969 6370 c-1 -8 -3 -69 -4 -135 -4 -149 -19 -356 -30 -416 -2 -9
-6 -40 -10 -70 -3 -30 -8 -61 -10 -69 -2 -8 -7 -31 -10 -50 -3 -19 -11 -55
-16 -80 -6 -25 -12 -52 -14 -60 -45 -211 -150 -501 -261 -724 -75 -150 -220
-397 -244 -416 -3 -3 -23 -30 -43 -60 -20 -31 -83 -112 -140 -180 -336 -405
-738 -710 -1222 -930 -310 -141 -687 -242 -1030 -275 -33 -3 -80 -8 -105 -11
-48 -5 -411 -5 -470 0 -71 6 -176 17 -200 21 -14 2 -56 9 -95 15 -103 16 -125
20 -175 31 -25 6 -56 13 -70 15 -49 9 -243 66 -353 104 -97 33 -167 63 -325
137 -18 9 -50 16 -70 17 -36 1 -37 0 -40 -38 -10 -116 200 -585 433 -969 33
-54 65 -106 70 -115 6 -10 48 -74 94 -142 425 -629 902 -1139 1340 -1433 224
-151 426 -237 619 -266 30 -4 1435 -8 3124 -8 2460 0 3086 2 3156 13 400 59
780 340 1215 895 87 111 319 462 410 619 234 406 478 904 672 1370 31 74 60
144 65 155 5 11 19 45 30 75 11 30 25 64 30 75 12 25 125 321 149 390 10 28
42 115 71 195 125 345 280 829 280 876 0 67 -64 132 -134 138 -48 3 -80 -16
-183 -110 -48 -45 -119 -108 -158 -140 -38 -32 -72 -61 -75 -64 -19 -20 -217
-162 -325 -232 -403 -262 -800 -433 -1265 -544 -101 -24 -294 -60 -375 -69
-27 -4 -61 -8 -74 -10 -13 -2 -65 -7 -115 -10 -50 -4 -102 -9 -116 -11 -30 -5
-434 -5 -505 0 -100 8 -210 18 -215 21 -3 2 -39 6 -80 10 -41 4 -78 9 -81 11
-3 2 -21 6 -40 9 -386 66 -724 172 -1076 340 -286 137 -585 329 -842 543 -223
184 -502 481 -654 692 -9 14 -37 53 -62 87 -125 174 -313 508 -395 703 -34 80
-49 103 -51 80z m941 -2024 c80 -11 104 -16 174 -37 150 -45 265 -119 301
-195 16 -33 16 -101 0 -182 -1 -9 -6 -48 -10 -87 -4 -38 -9 -78 -11 -88 -2
-10 -6 -48 -10 -85 -3 -36 -7 -73 -9 -82 -2 -8 -6 -44 -10 -80 -3 -36 -8 -76
-10 -90 -2 -14 -7 -54 -10 -90 -4 -36 -9 -73 -10 -82 -2 -9 -7 -48 -10 -85 -4
-37 -9 -77 -11 -88 -2 -11 -6 -47 -9 -80 -3 -33 -7 -71 -10 -85 -2 -14 -7 -50
-10 -80 -3 -30 -10 -86 -15 -125 -5 -38 -12 -92 -15 -120 -3 -27 -8 -61 -10
-75 -3 -14 -7 -45 -9 -70 -7 -63 -16 -131 -22 -158 -2 -12 -7 -44 -10 -70 -3
-26 -7 -58 -10 -72 -2 -14 -6 -43 -9 -65 -3 -22 -7 -51 -10 -65 -3 -14 -9 -50
-15 -80 -16 -93 -20 -112 -36 -148 -14 -35 -14 -35 -36 -16 -79 67 -229 235
-456 509 -157 189 -362 439 -428 521 -17 22 -68 84 -113 139 -45 55 -87 107
-94 115 -7 8 -103 126 -213 261 -111 135 -206 255 -213 266 -15 30 -14 102 3
152 35 97 161 244 290 335 291 208 748 328 1076 282z"/>
</g>
</svg>
